<svg width="494" height="60" viewBox="0 0 494 60" fill="none" xmlns="http://www.w3.org/2000/svg">
<path d="M129.209 35.2194C128.854 38.2949 127.769 40.917 125.956 43.0856C124.142 45.2543 121.677 46.9103 118.562 48.0538C115.448 49.1973 111.741 49.769 107.443 49.769C103.855 49.769 100.563 49.355 97.5661 48.527C94.6088 47.6989 92.0459 46.4569 89.8772 44.8008C87.748 43.1448 86.0919 41.0944 84.9091 38.6498C83.7262 36.1657 83.1347 33.2676 83.1347 29.9555C83.1347 26.6433 83.7262 23.7452 84.9091 21.2612C86.0919 18.7771 87.748 16.707 89.8772 15.0509C92.0459 13.3555 94.6088 12.0937 97.5661 11.2657C100.563 10.3982 103.855 9.96448 107.443 9.96448C111.741 9.96448 115.448 10.5559 118.562 11.7388C121.717 12.9217 124.201 14.6172 126.015 16.8253C127.829 18.9939 128.893 21.6357 129.209 24.7507H121.401C120.889 23.0946 120.021 21.6752 118.799 20.4923C117.616 19.2699 116.078 18.3433 114.186 17.7125C112.293 17.0816 110.046 16.7661 107.443 16.7661C104.21 16.7661 101.371 17.2787 98.9264 18.3039C96.4817 19.2897 94.5891 20.7683 93.2485 22.7398C91.9079 24.6718 91.2376 27.0771 91.2376 29.9555C91.2376 32.7944 91.9079 35.1799 93.2485 37.112C94.5891 39.0441 96.4817 40.5227 98.9264 41.5479C101.371 42.5336 104.21 43.0265 107.443 43.0265C110.046 43.0265 112.273 42.711 114.127 42.0802C116.019 41.4493 117.557 40.5424 118.74 39.3595C119.962 38.1766 120.849 36.7966 121.401 35.2194H129.209Z" fill="#4641D9"/>
<path d="M153.208 49.7099C149.501 49.7099 146.228 49.1184 143.389 47.9355C140.59 46.7526 138.402 45.0374 136.824 42.7899C135.247 40.503 134.459 37.7034 134.459 34.3913C134.459 31.0792 135.247 28.2797 136.824 25.9927C138.402 23.6664 140.59 21.9118 143.389 20.7289C146.228 19.546 149.501 18.9545 153.208 18.9545C156.914 18.9545 160.147 19.546 162.907 20.7289C165.707 21.9118 167.895 23.6664 169.472 25.9927C171.05 28.2797 171.838 31.0792 171.838 34.3913C171.838 37.7034 171.05 40.503 169.472 42.7899C167.895 45.0374 165.707 46.7526 162.907 47.9355C160.147 49.1184 156.914 49.7099 153.208 49.7099ZM153.208 43.7954C155.258 43.7954 157.091 43.4405 158.708 42.7308C160.364 41.9816 161.665 40.917 162.612 39.5369C163.558 38.1175 164.031 36.4023 164.031 34.3913C164.031 32.3804 163.558 30.6652 162.612 29.2457C161.665 27.7868 160.384 26.6828 158.767 25.9336C157.151 25.1844 155.297 24.8099 153.208 24.8099C151.157 24.8099 149.304 25.1844 147.648 25.9336C145.992 26.6828 144.671 27.7671 143.685 29.1866C142.739 30.606 142.266 32.341 142.266 34.3913C142.266 36.4023 142.739 38.1175 143.685 39.5369C144.632 40.917 145.933 41.9816 147.589 42.7308C149.245 43.4405 151.118 43.7954 153.208 43.7954Z" fill="#4641D9"/>
<path d="M191.835 49.6507C188.878 49.6507 186.197 49.0198 183.791 47.7581C181.426 46.4569 179.553 44.6628 178.173 42.3759C176.793 40.0495 176.103 37.3683 176.103 34.3322C176.103 31.2172 176.773 28.5163 178.114 26.2293C179.494 23.9424 181.367 22.168 183.732 20.9063C186.098 19.6051 188.799 18.9545 191.835 18.9545C194.477 18.9545 196.724 19.3488 198.578 20.1374C200.431 20.926 201.929 22.03 203.073 23.4495C204.216 24.8296 205.044 26.4462 205.557 28.2994C206.109 30.1526 206.385 32.1635 206.385 34.3322C206.385 36.0671 206.109 37.8414 205.557 39.6552C205.005 41.4296 204.157 43.0856 203.014 44.6234C201.87 46.1217 200.372 47.3441 198.519 48.2904C196.665 49.1973 194.438 49.6507 191.835 49.6507ZM194.319 43.7362C196.646 43.7362 198.657 43.3419 200.352 42.5533C202.048 41.7647 203.349 40.6607 204.256 39.2412C205.162 37.8217 205.616 36.1854 205.616 34.3322C205.616 32.3213 205.143 30.6258 204.196 29.2457C203.29 27.8262 201.988 26.7419 200.293 25.9927C198.637 25.2436 196.646 24.869 194.319 24.869C191.047 24.869 188.503 25.7365 186.69 27.4714C184.876 29.2063 183.969 31.4932 183.969 34.3322C183.969 36.2248 184.403 37.8809 185.27 39.3004C186.138 40.6804 187.34 41.7647 188.878 42.5533C190.455 43.3419 192.269 43.7362 194.319 43.7362ZM205.616 7.77612H213.305V49.0001H206.148C206.03 48.0932 205.912 46.93 205.793 45.5106C205.675 44.0517 205.616 42.6913 205.616 41.4296V7.77612Z" fill="#4641D9"/>
<path d="M248.385 39.2412H255.837C255.521 41.2521 254.674 43.0462 253.294 44.6234C251.953 46.2006 250.12 47.4426 247.793 48.3495C245.467 49.2564 242.628 49.7099 239.276 49.7099C235.53 49.7099 232.218 49.1184 229.34 47.9355C226.462 46.7132 224.214 44.9585 222.597 42.6716C220.981 40.3847 220.173 37.6246 220.173 34.3913C220.173 31.1581 220.961 28.398 222.538 26.111C224.115 23.7847 226.304 22.0103 229.103 20.788C231.942 19.5657 235.254 18.9545 239.04 18.9545C242.904 18.9545 246.117 19.5657 248.68 20.788C251.243 22.0103 253.136 23.8635 254.358 26.3476C255.62 28.7923 256.152 31.927 255.955 35.7517H227.92C228.118 37.25 228.67 38.6103 229.577 39.8327C230.523 41.055 231.785 42.021 233.362 42.7308C234.978 43.4405 236.891 43.7954 239.099 43.7954C241.544 43.7954 243.574 43.3814 245.191 42.5533C246.847 41.6859 247.911 40.5818 248.385 39.2412ZM238.685 24.8099C235.846 24.8099 233.539 25.4407 231.765 26.7025C229.991 27.9248 228.847 29.4429 228.335 31.2566H248.325C248.128 29.2851 247.182 27.7277 245.487 26.5842C243.83 25.4013 241.563 24.8099 238.685 24.8099Z" fill="#4641D9"/>
<path d="M260.494 39.2412H267.591C268.025 40.5818 268.912 41.6859 270.253 42.5533C271.633 43.3814 273.427 43.7954 275.635 43.7954C277.133 43.7954 278.296 43.6574 279.124 43.3813C279.952 43.1053 280.524 42.711 280.839 42.1985C281.155 41.6464 281.313 41.0353 281.313 40.365C281.313 39.5369 281.056 38.9061 280.544 38.4723C280.031 37.9992 279.243 37.6246 278.178 37.3486C277.113 37.0726 275.753 36.8163 274.097 36.5797C272.441 36.3037 270.844 35.9685 269.306 35.5742C267.768 35.1799 266.408 34.6673 265.225 34.0365C264.042 33.3661 263.096 32.5381 262.386 31.5524C261.716 30.5272 261.381 29.2851 261.381 27.8262C261.381 26.4068 261.716 25.145 262.386 24.041C263.096 22.9369 264.062 22.0103 265.284 21.2612C266.546 20.512 268.005 19.9403 269.661 19.546C271.357 19.1517 273.17 18.9545 275.102 18.9545C278.02 18.9545 280.445 19.3882 282.377 20.2557C284.309 21.0837 285.748 22.2666 286.695 23.8044C287.681 25.3027 288.173 27.0376 288.173 29.0091H281.372C281.056 27.5502 280.425 26.5053 279.479 25.8745C278.533 25.2041 277.074 24.869 275.102 24.869C273.17 24.869 271.711 25.1647 270.726 25.7562C269.74 26.3476 269.247 27.1559 269.247 28.1811C269.247 29.0091 269.543 29.6597 270.134 30.1329C270.765 30.5666 271.672 30.9215 272.855 31.1975C274.077 31.4735 275.595 31.7692 277.409 32.0847C278.947 32.4001 280.406 32.755 281.786 33.1493C283.205 33.5436 284.467 34.0562 285.571 34.687C286.675 35.2785 287.543 36.0868 288.173 37.112C288.844 38.0977 289.179 39.3595 289.179 40.8973C289.179 42.7899 288.627 44.3868 287.523 45.688C286.458 46.9892 284.92 47.9947 282.91 48.7044C280.899 49.3747 278.493 49.7099 275.694 49.7099C273.21 49.7099 271.061 49.4536 269.247 48.941C267.473 48.389 265.994 47.6989 264.811 46.8709C263.628 46.0034 262.702 45.0966 262.031 44.1502C261.4 43.1645 260.967 42.2379 260.73 41.3704C260.494 40.503 260.415 39.7932 260.494 39.2412Z" fill="#4641D9"/>
<path d="M295.475 25.9927L294.41 23.9818C295.002 23.1144 295.574 22.1483 296.126 21.0837C296.717 19.9797 297.033 18.8756 297.072 17.7716L293.819 17.121V10.3785H302.868V15.2284C302.868 17.9885 302.198 20.236 300.857 21.9709C299.556 23.6664 297.762 25.007 295.475 25.9927Z" fill="#4641D9"/>
<path d="M362.821 41.193L360.337 42.1985V10.7334H368.203V49.0001H360.337L329.404 18.7771L331.888 17.7716V49.0001H324.022V10.7334H331.888L362.821 41.193Z" fill="#4641D9"/>
<path d="M393.657 49.7099C389.951 49.7099 386.678 49.1184 383.839 47.9355C381.039 46.7526 378.851 45.0374 377.274 42.7899C375.697 40.503 374.908 37.7034 374.908 34.3913C374.908 31.0792 375.697 28.2797 377.274 25.9927C378.851 23.6664 381.039 21.9118 383.839 20.7289C386.678 19.546 389.951 18.9545 393.657 18.9545C397.363 18.9545 400.597 19.546 403.357 20.7289C406.156 21.9118 408.345 23.6664 409.922 25.9927C411.499 28.2797 412.288 31.0792 412.288 34.3913C412.288 37.7034 411.499 40.503 409.922 42.7899C408.345 45.0374 406.156 46.7526 403.357 47.9355C400.597 49.1184 397.363 49.7099 393.657 49.7099ZM393.657 43.7954C395.707 43.7954 397.541 43.4405 399.157 42.7308C400.813 41.9816 402.115 40.917 403.061 39.5369C404.007 38.1175 404.48 36.4023 404.48 34.3913C404.48 32.3804 404.007 30.6652 403.061 29.2457C402.115 27.7868 400.833 26.6828 399.217 25.9336C397.6 25.1844 395.747 24.8099 393.657 24.8099C391.607 24.8099 389.753 25.1844 388.097 25.9336C386.441 26.6828 385.12 27.7671 384.135 29.1866C383.188 30.606 382.715 32.341 382.715 34.3913C382.715 36.4023 383.188 38.1175 384.135 39.5369C385.081 40.917 386.382 41.9816 388.038 42.7308C389.694 43.4405 391.567 43.7954 393.657 43.7954Z" fill="#4641D9"/>
<path d="M435.301 49.7099C431.595 49.7099 428.322 49.1184 425.483 47.9355C422.683 46.7526 420.495 45.0374 418.918 42.7899C417.341 40.503 416.552 37.7034 416.552 34.3913C416.552 31.0792 417.341 28.2797 418.918 25.9927C420.495 23.6664 422.683 21.9118 425.483 20.7289C428.322 19.546 431.595 18.9545 435.301 18.9545C439.007 18.9545 442.241 19.546 445.001 20.7289C447.8 21.9118 449.989 23.6664 451.566 25.9927C453.143 28.2797 453.932 31.0792 453.932 34.3913C453.932 37.7034 453.143 40.503 451.566 42.7899C449.989 45.0374 447.8 46.7526 445.001 47.9355C442.241 49.1184 439.007 49.7099 435.301 49.7099ZM435.301 43.7954C437.351 43.7954 439.185 43.4405 440.801 42.7308C442.458 41.9816 443.759 40.917 444.705 39.5369C445.651 38.1175 446.124 36.4023 446.124 34.3913C446.124 32.3804 445.651 30.6652 444.705 29.2457C443.759 27.7868 442.477 26.6828 440.861 25.9336C439.244 25.1844 437.391 24.8099 435.301 24.8099C433.251 24.8099 431.397 25.1844 429.741 25.9336C428.085 26.6828 426.764 27.7671 425.779 29.1866C424.832 30.606 424.359 32.341 424.359 34.3913C424.359 36.4023 424.832 38.1175 425.779 39.5369C426.725 40.917 428.026 41.9816 429.682 42.7308C431.338 43.4405 433.211 43.7954 435.301 43.7954Z" fill="#4641D9"/>
<path d="M460.148 7.77612H467.837V49.0001H460.148V7.77612ZM492.618 19.6051L475.111 35.0419L475.289 30.3103L493.979 49.0001H484.22L468.014 32.4987L482.15 19.6051H492.618Z" fill="#4641D9"/>
<rect y="0.486816" width="60" height="59" rx="16" fill="#4641D9"/>
<path d="M46.7921 22.4868L29 38.4868V33.4868L45.2232 50.306H35.0469L21 36.0028L35.818 22.4868H46.7921Z" fill="white"/>
<path d="M17.9697 33.1768L25.4056 26.1511L25.4057 9.19882L17.9697 9.19882L17.9697 33.1768Z" fill="white"/>
</svg>
